<!DOCTYPE svg PUBLIC "-//W3C//DTD SVG 1.1//EN" "http://www.w3.org/Graphics/SVG/1.1/DTD/svg11.dtd">
<svg fill="#50deac" width="200px" height="200px" viewBox="0 0 16 16" id="SVGRepoEditor" xmlns="http://www.w3.org/2000/svg" stroke="#50deac" stroke-width="0">
<g id="SVGRepo_bgCarrier" stroke-width="0"/> <path id="SVGRepoEditor" data-name="Path 41" d="M39.854,15.146l-4.421-4.42a6.511,6.511,0,1,0-.707.707l4.42,4.421a.5.5,0,0,0,.708-.708ZM30.5,12A5.5,5.5,0,1,1,36,6.5,5.506,5.506,0,0,1,30.5,12ZM31,3.5a.5.5,0,0,1-.5.5A2.5,2.5,0,0,0,28,6.5a.5.5,0,0,1-1,0A3.5,3.5,0,0,1,30.5,3,.5.5,0,0,1,31,3.5Z" transform="translate(-24)"/> </svg>